<svg width="36" height="36" xmlns="http://www.w3.org/2000/svg"><path d="M27.179 7.275c.858-.858 2.218-.884 3.074-.028.856.856.83 2.216-.028 3.074l-5.413 5.413 2.688 12.68a2.154 2.154 0 0 1-.584 1.969l-1.079 1.079-5.668-11.085-5.804 5.804.63 3.271c.067.35-.044.712-.297.965l-1.144 1.144-2.646-4.969-4.969-2.646 1.144-1.144c.253-.253.614-.364.965-.296l3.271.629 15.86-15.86zM6.038 11.663l1.109-1.109a2.154 2.154 0 0 1 1.968-.584l10.531 2.227-4.242 4.242-9.366-4.776z" fill="#FFF" fill-rule="evenodd"/></svg>